<svg xmlns="http://www.w3.org/2000/svg" xmlns:xlink="http://www.w3.org/1999/xlink" width="1040" height="126.83999999999999"><rect width="1040" height="126.83999999999999" rx="0" ry="0" class="a"></rect><svg height="86.83999999999999" viewBox="0 0 100 8.684" width="1000" x="20" xmlns="http://www.w3.org/2000/svg" xmlns:xlink="http://www.w3.org/1999/xlink" y="20"><style>.a{fill:rgb(40,45,53)}.b{font-family:'Fira Code',Monaco,Consolas,Menlo,'Bitstream Vera Sans Mono','Powerline Symbols',monospace}.c{fill:transparent}.d{fill:rgb(185,192,203);white-space:pre}.e{fill:rgb(232,131,136)}.f{fill:rgb(40,45,53);font-weight:bold;white-space:pre}.g{fill:rgb(168,204,140);font-weight:bold;text-decoration:underline;white-space:pre}</style><g font-family="&#x27;Fira Code&#x27;,Monaco,Consolas,Menlo,&#x27;Bitstream Vera Sans Mono&#x27;,&#x27;Powerline Symbols&#x27;,monospace" font-size="1.67" class="b"><defs><symbol id="a"><rect height="5" width="100" x="0" y="0" class="c"></rect></symbol></defs><rect height="8.684" width="100" class="a"></rect><svg x="0" y="0" width="100"><svg x="0"><use xlink:href="#a"></use><text x="0" y="1.67" class="d">I</text><text x="2.004" y="1.67" class="d">am</text><text x="5.01" y="1.67" class="d">the</text><text x="9.017999999999999" y="1.67" class="d">very</text><text x="14.027999999999999" y="1.67" class="d">model</text><text x="20.04" y="1.67" class="d">of</text><text x="23.045999999999996" y="1.67" class="d">a</text><rect height="2.171" width="1" x="25.05" y="0" class="e"></rect><text x="25.05" y="1.67" class="f">m</text><text x="26.052" y="1.67" class="g">carto</text><text x="31.061999999999998" y="1.67" class="d">o</text><rect height="2.171" width="3" x="32.064" y="0" class="e"></rect><text x="32.064" y="1.67" class="f">der</text><text x="35.06999999999999" y="1.67" class="d">n</text><rect height="2.171" width="8" x="37.074" y="0" class="e"></rect><text x="37.074" y="1.67" class="f">Major-Ge</text><text x="45.089999999999996" y="1.67" class="g">i</text><text x="46.09199999999999" y="1.67" class="d">n</text><rect height="2.171" width="2" x="47.093999999999994" y="0" class="e"></rect><text x="47.093999999999994" y="1.67" class="f">er</text><text x="49.098" y="1.67" class="g">dividu</text><text x="55.10999999999999" y="1.67" class="d">al,</text><rect height="2.171" width="4" x="0" y="2.171" class="e"></rect><text x="0" y="3.8409999999999997" class="f">I&#x27;ve</text><text x="4.008" y="3.8409999999999997" class="g">My</text><rect height="2.171" width="1" x="7.013999999999999" y="2.171" class="e"></rect><text x="7.013999999999999" y="3.8409999999999997" class="f">i</text><text x="8.016" y="3.8409999999999997" class="g">a</text><text x="9.017999999999999" y="3.8409999999999997" class="d">n</text><rect height="2.171" width="3" x="10.02" y="2.171" class="e"></rect><text x="10.02" y="3.8409999999999997" class="f">for</text><text x="13.026" y="3.8409999999999997" class="g">i</text><text x="14.027999999999999" y="3.8409999999999997" class="d">mation</text><text x="20.04" y="3.8409999999999997" class="g">&#x27;s</text><rect height="2.171" width="5" x="23.045999999999996" y="2.171" class="e"></rect><text x="23.045999999999996" y="3.8409999999999997" class="f">veget</text><text x="28.055999999999997" y="3.8409999999999997" class="g">comic</text><text x="33.065999999999995" y="3.8409999999999997" class="d">a</text><rect height="2.171" width="1" x="34.068" y="2.171" class="e"></rect><text x="34.068" y="3.8409999999999997" class="f">b</text><text x="35.06999999999999" y="3.8409999999999997" class="d">l</text><rect height="2.171" width="1" x="36.071999999999996" y="2.171" class="e"></rect><text x="36.071999999999996" y="3.8409999999999997" class="f">e</text><text x="37.074" y="3.8409999999999997" class="d">,</text><rect height="2.171" width="1" x="39.077999999999996" y="2.171" class="e"></rect><text x="39.077999999999996" y="3.8409999999999997" class="f">a</text><text x="40.08" y="3.8409999999999997" class="g">u</text><text x="41.082" y="3.8409999999999997" class="d">n</text><rect height="2.171" width="2" x="42.083999999999996" y="2.171" class="e"></rect><text x="42.083999999999996" y="3.8409999999999997" class="f">im</text><text x="44.087999999999994" y="3.8409999999999997" class="g">usu</text><text x="47.093999999999994" y="3.8409999999999997" class="d">al,</text><text x="51.102" y="3.8409999999999997" class="d">and</text><text x="55.10999999999999" y="3.8409999999999997" class="g">whi</text><text x="58.116" y="3.8409999999999997" class="d">m</text><text x="59.117999999999995" y="3.8409999999999997" class="g">s</text><text x="60.11999999999999" y="3.8409999999999997" class="d">i</text><rect height="2.171" width="3" x="61.12199999999999" y="2.171" class="e"></rect><text x="61.12199999999999" y="3.8409999999999997" class="f">ner</text><text x="64.128" y="3.8409999999999997" class="g">c</text><text x="65.13" y="3.8409999999999997" class="d">al,</text><text x="0" y="6.012" class="d">I</text><text x="1.002" y="6.012" class="g">&#x27;m</text><rect height="2.171" width="4" x="4.008" y="4.342" class="e"></rect><text x="4.008" y="6.012" class="f">know</text><text x="8.016" y="6.012" class="g">quite</text><text x="14.027999999999999" y="6.012" class="g">adep</text><text x="18.035999999999998" y="6.012" class="d">t</text><rect height="2.171" width="2" x="19.037999999999997" y="4.342" class="e"></rect><text x="19.037999999999997" y="6.012" class="f">he</text><rect height="2.171" width="5" x="22.043999999999997" y="4.342" class="e"></rect><text x="22.043999999999997" y="6.012" class="f">kings</text><text x="27.054" y="6.012" class="g">at</text><rect height="2.171" width="1" x="30.059999999999995" y="4.342" class="e"></rect><text x="30.059999999999995" y="6.012" class="f">o</text><text x="31.061999999999998" y="6.012" class="d">f</text><rect height="2.171" width="2" x="32.064" y="4.342" class="e"></rect><text x="32.064" y="6.012" class="f"> E</text><text x="34.068" y="6.012" class="g">u</text><text x="35.06999999999999" y="6.012" class="d">n</text><text x="36.071999999999996" y="6.012" class="g">ny</text><text x="39.077999999999996" y="6.012" class="d">g</text><rect height="2.171" width="1" x="40.08" y="4.342" class="e"></rect><text x="40.08" y="6.012" class="f">l</text><text x="41.082" y="6.012" class="d">a</text><rect height="2.171" width="2" x="42.083999999999996" y="4.342" class="e"></rect><text x="42.083999999999996" y="6.012" class="f">nd</text><text x="44.087999999999994" y="6.012" class="g">gs</text><text x="46.09199999999999" y="6.012" class="d">,</text><rect height="2.171" width="8" x="48.096" y="4.342" class="e"></rect><text x="48.096" y="6.012" class="f">and I qu</text><text x="56.111999999999995" y="6.012" class="g">c</text><text x="57.114" y="6.012" class="d">o</text><rect height="2.171" width="1" x="58.116" y="4.342" class="e"></rect><text x="58.116" y="6.012" class="f">t</text><text x="59.117999999999995" y="6.012" class="g">m</text><text x="60.11999999999999" y="6.012" class="d">e</text><text x="61.12199999999999" y="6.012" class="g">dic</text><text x="65.13" y="6.012" class="d">the</text><text x="68.136" y="6.012" class="g">ory</text><rect height="2.171" width="3" x="72.14399999999999" y="4.342" class="e"></rect><text x="72.14399999999999" y="6.012" class="f">fig</text><text x="75.14999999999999" y="6.012" class="g">I</text><text x="77.154" y="6.012" class="d">h</text><rect height="2.171" width="2" x="78.15599999999999" y="4.342" class="e"></rect><text x="78.15599999999999" y="6.012" class="f">ts</text><text x="80.16" y="6.012" class="g">ave</text><rect height="2.171" width="5" x="84.16799999999999" y="4.342" class="e"></rect><text x="84.16799999999999" y="6.012" class="f">histo</text><text x="89.178" y="6.012" class="d">r</text><rect height="2.171" width="2" x="90.17999999999999" y="4.342" class="e"></rect><text x="90.17999999999999" y="6.012" class="f">ic</text><text x="92.18399999999998" y="6.012" class="g">e</text><text x="93.18599999999999" y="6.012" class="d">a</text><rect height="2.171" width="1" x="94.18799999999999" y="4.342" class="e"></rect><text x="94.18799999999999" y="6.012" class="f">l</text><text x="95.19" y="6.012" class="g">d</text><text x="96.192" y="6.012" class="d">,</text><text x="0" y="8.183" class="d">From</text><rect height="2.171" width="3" x="5.01" y="6.513" class="e"></rect><text x="5.01" y="8.183" class="f">Mar</text><text x="8.016" y="8.183" class="g">wicked</text><text x="15.029999999999998" y="8.183" class="g">puns</text><text x="20.04" y="8.183" class="d">a</text><text x="21.041999999999998" y="8.183" class="g">nd</text><text x="24.048" y="8.183" class="g">s</text><text x="25.05" y="8.183" class="d">t</text><rect height="2.171" width="1" x="26.052" y="6.513" class="e"></rect><text x="26.052" y="8.183" class="f">h</text><text x="27.054" y="8.183" class="g">upid</text><text x="32.064" y="8.183" class="g">j</text><text x="33.065999999999995" y="8.183" class="d">o</text><rect height="2.171" width="1" x="34.068" y="6.513" class="e"></rect><text x="34.068" y="8.183" class="f">n</text><text x="35.06999999999999" y="8.183" class="g">kes</text><text x="39.077999999999996" y="8.183" class="d">to</text><rect height="2.171" width="1" x="42.083999999999996" y="6.513" class="e"></rect><text x="42.083999999999996" y="8.183" class="f">W</text><text x="43.086" y="8.183" class="g">anvils</text><text x="50.1" y="8.183" class="g">th</text><text x="52.104" y="8.183" class="d">at</text><rect height="2.171" width="1" x="54.108" y="6.513" class="e"></rect><text x="54.108" y="8.183" class="f">e</text><text x="56.111999999999995" y="8.183" class="g">d</text><text x="57.114" y="8.183" class="d">r</text><rect height="2.171" width="1" x="58.116" y="6.513" class="e"></rect><text x="58.116" y="8.183" class="f">l</text><text x="59.117999999999995" y="8.183" class="d">o</text><text x="60.11999999999999" y="8.183" class="g">p</text><text x="62.123999999999995" y="8.183" class="d">o</text><rect height="2.171" width="3" x="63.12599999999999" y="6.513" class="e"></rect><text x="63.12599999999999" y="8.183" class="f">, i</text><text x="66.13199999999999" y="8.183" class="d">n</text><text x="68.136" y="8.183" class="g">y</text><text x="69.13799999999999" y="8.183" class="d">o</text><rect height="2.171" width="3" x="70.13999999999999" y="6.513" class="e"></rect><text x="70.13999999999999" y="8.183" class="f">rde</text><text x="73.146" y="8.183" class="g">u</text><text x="74.148" y="8.183" class="d">r</text><rect height="2.171" width="3" x="76.15199999999999" y="6.513" class="e"></rect><text x="76.15199999999999" y="8.183" class="f">cat</text><text x="79.158" y="8.183" class="g">h</text><text x="80.16" y="8.183" class="d">e</text><rect height="2.171" width="5" x="81.16199999999999" y="6.513" class="e"></rect><text x="81.16199999999999" y="8.183" class="f">goric</text><text x="86.172" y="8.183" class="d">a</text><rect height="2.171" width="1" x="87.17399999999999" y="6.513" class="e"></rect><text x="87.17399999999999" y="8.183" class="f">l</text><text x="88.17599999999999" y="8.183" class="g">d</text><text x="89.178" y="8.183" class="d">.</text></svg></svg></g></svg></svg>