<svg xmlns="http://www.w3.org/2000/svg" xmlns:xlink="http://www.w3.org/1999/xlink" width="1040" height="126.83999999999999"><rect width="1040" height="126.83999999999999" rx="0" ry="0" class="a"></rect><svg height="86.83999999999999" viewBox="0 0 100 8.684" width="1000" x="20" xmlns="http://www.w3.org/2000/svg" xmlns:xlink="http://www.w3.org/1999/xlink" y="20"><style>.a{fill:rgb(40,45,53)}.b{font-family:'Fira Code',Monaco,Consolas,Menlo,'Bitstream Vera Sans Mono','Powerline Symbols',monospace}.c{fill:transparent}.d{fill:rgb(185,192,203);white-space:pre}.e{fill:rgb(232,131,136)}.f{fill:rgb(40,45,53);font-weight:bold;white-space:pre}.g{fill:rgb(168,204,140);font-weight:bold;text-decoration:underline;white-space:pre}</style><g font-family="&#x27;Fira Code&#x27;,Monaco,Consolas,Menlo,&#x27;Bitstream Vera Sans Mono&#x27;,&#x27;Powerline Symbols&#x27;,monospace" font-size="1.67" class="b"><defs><symbol id="a"><rect height="5" width="100" x="0" y="0" class="c"></rect></symbol></defs><rect height="8.684" width="100" class="a"></rect><svg x="0" y="0" width="100"><svg x="0"><use xlink:href="#a"></use><text x="0" y="1.67" class="d">I</text><rect height="2.171" width="39" x="1.002" y="0" class="e"></rect><text x="1.002" y="1.67" class="f"> know the kings of England, and I quote</text><text x="40.08" y="1.67" class="g">&#x27;m</text><text x="43.086" y="1.67" class="g">quite</text><text x="49.098" y="1.67" class="g">adept</text><text x="55.10999999999999" y="1.67" class="g">at</text><text x="58.116" y="1.67" class="g">funny</text><text x="64.128" y="1.67" class="g">gags,</text><text x="70.13999999999999" y="1.67" class="g">comedic</text><text x="78.15599999999999" y="1.67" class="d">the</text><rect height="2.171" width="18" x="81.16199999999999" y="0" class="e"></rect><text x="81.16199999999999" y="1.67" class="f"> fights historical</text><text x="99.198" y="1.67" class="g">o</text><text x="0" y="3.8409999999999997" class="g">ry</text><text x="3.006" y="3.8409999999999997" class="g">I</text><text x="5.01" y="3.8409999999999997" class="g">have</text><text x="10.02" y="3.8409999999999997" class="g">read</text><text x="14.027999999999999" y="3.8409999999999997" class="d">,</text><text x="0" y="6.012" class="d">From</text><rect height="2.171" width="8" x="5.01" y="4.342" class="e"></rect><text x="5.01" y="6.012" class="f">Marathon</text><text x="13.026" y="6.012" class="g">wicked</text><text x="20.04" y="6.012" class="g">puns</text><text x="25.05" y="6.012" class="g">and</text><text x="29.058" y="6.012" class="g">stupid</text><text x="36.071999999999996" y="6.012" class="g">jokes</text><text x="42.083999999999996" y="6.012" class="d">to</text><rect height="2.171" width="30" x="45.089999999999996" y="4.342" class="e"></rect><text x="45.089999999999996" y="6.012" class="f">Waterloo, in order categorical</text><text x="75.14999999999999" y="6.012" class="g">anvils</text><text x="82.164" y="6.012" class="g">that</text><text x="87.17399999999999" y="6.012" class="g">drop</text><text x="92.18399999999998" y="6.012" class="g">on</text><text x="95.19" y="6.012" class="g">your</text><text x="0" y="8.183" class="g">head</text><text x="4.008" y="8.183" class="d">.</text></svg></svg></g></svg></svg>