<svg xmlns="http://www.w3.org/2000/svg" xmlns:xlink="http://www.w3.org/1999/xlink" width="1040" height="191.97"><rect width="1040" height="191.97" rx="0" ry="0" class="a"></rect><svg height="151.97" viewBox="0 0 100 15.197" width="1000" x="20" xmlns="http://www.w3.org/2000/svg" xmlns:xlink="http://www.w3.org/1999/xlink" y="20"><style>.a{fill:rgb(40,45,53)}.b{font-family:'Fira Code',Monaco,Consolas,Menlo,'Bitstream Vera Sans Mono','Powerline Symbols',monospace}.c{fill:transparent}.d{fill:rgb(185,192,203);white-space:pre}.e{fill:rgb(232,131,136)}.f{fill:rgb(40,45,53);font-weight:bold;white-space:pre}.g{fill:rgb(168,204,140);font-weight:bold;text-decoration:underline;white-space:pre}</style><g font-family="&#x27;Fira Code&#x27;,Monaco,Consolas,Menlo,&#x27;Bitstream Vera Sans Mono&#x27;,&#x27;Powerline Symbols&#x27;,monospace" font-size="1.67" class="b"><defs><symbol id="a"><rect height="8" width="100" x="0" y="0" class="c"></rect></symbol></defs><rect height="15.197" width="100" class="a"></rect><svg x="0" y="0" width="100"><svg x="0"><use xlink:href="#a"></use><text x="0" y="1.67" class="d">I</text><text x="2.004" y="1.67" class="d">am</text><text x="5.01" y="1.67" class="d">the</text><text x="9.017999999999999" y="1.67" class="d">very</text><text x="14.027999999999999" y="1.67" class="d">model</text><text x="20.04" y="1.67" class="d">of</text><text x="23.045999999999996" y="1.67" class="d">a</text><rect height="2.171" width="21" x="25.05" y="0" class="e"></rect><text x="25.05" y="1.67" class="f">modern Major-General,</text><rect height="2.171" width="48" x="0" y="2.171" class="e"></rect><text x="0" y="3.8409999999999997" class="f">I&#x27;ve information vegetable, animal, and mineral,</text><rect height="2.171" width="63" x="0" y="4.342" class="e"></rect><text x="0" y="6.012" class="f">I know the kings of England, and I quote the fights historical,</text><rect height="2.171" width="47" x="0" y="6.513" class="e"></rect><text x="0" y="8.183" class="f">From Marathon to Waterloo, in order categorical</text><text x="47.093999999999994" y="8.183" class="g">cartoon</text><text x="55.10999999999999" y="8.183" class="g">individual,</text><text x="0" y="10.354" class="g">My</text><text x="3.006" y="10.354" class="g">animation&#x27;s</text><text x="15.029999999999998" y="10.354" class="g">comical,</text><text x="24.048" y="10.354" class="g">unusual,</text><text x="33.065999999999995" y="10.354" class="g">and</text><text x="37.074" y="10.354" class="g">whimsical,</text><text x="0" y="12.525" class="g">I&#x27;m</text><text x="4.008" y="12.525" class="g">quite</text><text x="10.02" y="12.525" class="g">adept</text><text x="16.032" y="12.525" class="g">at</text><text x="19.037999999999997" y="12.525" class="g">funny</text><text x="25.05" y="12.525" class="g">gags,</text><text x="31.061999999999998" y="12.525" class="g">comedic</text><text x="39.077999999999996" y="12.525" class="g">theory</text><text x="46.09199999999999" y="12.525" class="g">I</text><text x="48.096" y="12.525" class="g">have</text><text x="53.105999999999995" y="12.525" class="g">read,</text><text x="0" y="14.696" class="g">From</text><text x="5.01" y="14.696" class="g">wicked</text><text x="12.024" y="14.696" class="g">puns</text><text x="17.034" y="14.696" class="g">and</text><text x="21.041999999999998" y="14.696" class="g">stupid</text><text x="28.055999999999997" y="14.696" class="g">jokes</text><text x="34.068" y="14.696" class="g">to</text><text x="37.074" y="14.696" class="g">anvils</text><text x="44.087999999999994" y="14.696" class="g">that</text><text x="49.098" y="14.696" class="g">drop</text><text x="54.108" y="14.696" class="g">on</text><text x="57.114" y="14.696" class="g">your</text><text x="62.123999999999995" y="14.696" class="g">head</text><text x="66.13199999999999" y="14.696" class="d">.</text></svg></svg></g></svg></svg>